<svg width="298" height="120" viewBox="0 0 298 120" fill="none" xmlns="http://www.w3.org/2000/svg">
<path fill-rule="evenodd" clip-rule="evenodd" d="M49.3154 68.4185C49.3154 68.4185 52.5146 70.3953 55.4138 71.9767V53.0987H50.2151C49.7153 53.0987 49.3154 53.4941 49.3154 53.9883V55.6685V68.4185ZM72.0093 59.622L70.6096 58.0406V53.5929C70.6096 53.5929 70.6096 53.2964 70.9097 53.2964C73.9089 53.1976 79.9072 49.9359 72.7092 41.2382C72.4092 40.9417 72.4092 40.5464 72.7092 40.3487C74.3318 39.1357 77.9604 36.389 81.9878 33.3353C75.9487 28.1402 68.0911 25 59.5 25C50.9436 25 43.1145 28.1149 37.0852 33.2726C41.0935 36.3119 44.7 39.0416 46.3162 40.2498C46.5161 40.5464 46.6162 40.8429 46.3162 41.1394C39.1182 49.8371 45.1165 52.9999 48.1157 53.1976C48.4158 53.1976 48.4158 53.4941 48.4158 53.4941V57.7441L47.0161 59.3255C47.0161 59.3255 46.5161 60.0174 46.4163 59.3255C46.3162 58.7325 45.6165 57.7441 44.0168 58.4359C42.8171 58.9301 40.1179 57.8429 39.0183 57.3487C38.7183 57.1511 38.7183 57.0522 39.0183 56.8546C40.2178 56.2615 43.417 54.5813 43.6169 54.4825C43.8169 54.3836 43.5171 53.9883 43.217 54.0871C42.8171 54.2848 41.5176 54.8778 39.418 55.6685C37.3186 56.4592 35.1191 54.9766 34.2195 54.2848C33.9197 54.0871 33.9197 53.8894 34.2195 53.7906C35.8191 53.3952 40.9177 52.1104 41.2175 52.0115C41.5176 51.9127 41.3176 51.4185 40.9177 51.5173C40.459 51.6307 39.4409 51.8417 38.2222 52.0943C37.3164 52.282 36.2996 52.4927 35.3191 52.7034C33.1199 53.1976 31.1204 51.5173 30.3206 50.7266C30.1206 50.4301 30.1206 50.2324 30.4204 50.2324C31.1287 50.1546 32.5649 49.9849 34.0647 49.8077C36.3752 49.5348 38.8364 49.244 39.0183 49.244C39.3181 49.1452 39.3181 48.651 38.9182 48.651C38.2212 48.704 36.1724 48.7855 34.1755 48.8649C32.4495 48.9335 30.7622 49.0005 30.0205 49.0464C29.1318 49.105 28.1375 48.0524 27.3501 46.9589C26.8164 48.3262 26.3674 49.7359 26.0095 51.1815C27.0239 51.0624 28.4211 50.9243 28.4211 50.9243C28.4211 50.9243 29.1208 50.8255 29.6206 51.2208L29.6228 51.2232C30.2219 51.8151 30.7212 52.3088 31.2202 52.9011C31.7202 53.4941 31.1204 53.6917 30.9204 53.6917C30.6204 53.7906 30.4204 53.7906 30.1206 53.8894C28.3447 54.2884 26.7646 53.3989 25.6956 52.5732C25.2395 54.811 25 57.1275 25 59.5C25 78.5538 40.4463 94 59.5 94C78.5537 94 94 78.5538 94 59.5C94 57.1616 93.7673 54.8776 93.324 52.6697C92.2329 53.496 90.6016 54.3876 88.9048 53.9883C88.7549 53.9388 88.6299 53.9141 88.5049 53.8894C88.3799 53.8647 88.2549 53.84 88.105 53.7906C88.0862 53.7812 88.0637 53.771 88.0391 53.7598C87.8015 53.6517 87.3523 53.4474 87.8052 52.9999C88.0552 52.7032 88.3303 52.4312 88.6055 52.1593C88.8801 51.8876 89.155 51.616 89.4048 51.3196C89.9045 50.8255 90.6045 51.0231 90.6045 51.0231C90.6045 51.0231 92.0005 51.1612 93.0146 51.2803C92.6658 49.8531 92.2283 48.4608 91.708 47.1094C90.8909 48.2531 89.8713 49.4041 89.0049 49.3429C87.4053 49.244 81.4067 48.9475 80.1072 48.9475C79.7073 48.9475 79.7073 49.5406 80.0073 49.5406C80.1892 49.5406 82.6509 49.8314 84.9617 50.1044C86.4609 50.2815 87.8967 50.4512 88.605 50.529C88.9048 50.6278 89.0049 50.7266 88.7048 51.0231C87.905 51.8138 85.9058 53.4941 83.7063 52.9999C83.019 52.8522 82.3049 52.6956 81.6228 52.5461C80.0227 52.1954 78.5984 51.8831 78.1077 51.8138C77.7078 51.715 77.6079 52.2092 77.8079 52.308C78.0078 52.4069 83.2063 53.6917 84.8059 54.0871C85.106 54.1859 85.106 54.3836 84.8059 54.5813C83.9062 55.2732 81.7068 56.7557 79.6074 55.965C78.123 55.406 77.0884 54.9458 76.4331 54.6542C76.1614 54.5334 75.9548 54.4415 75.8083 54.3836C75.5085 54.1859 75.2085 54.5813 75.4084 54.779C75.574 54.8336 76.5933 55.3703 77.6748 55.94C78.552 56.4019 79.4702 56.8855 80.0073 57.1511C80.3071 57.3487 80.3071 57.5464 80.0073 57.6453C78.9075 58.1394 76.2083 59.2267 75.0085 58.7325C73.4089 58.0406 72.7092 58.9301 72.6091 59.622C72.5093 60.3139 72.0093 59.622 72.0093 59.622ZM90.8699 45.1212C90.6292 44.597 90.376 44.0799 90.1101 43.5703C89.488 43.7202 88.7915 43.8884 88.062 44.0646C84.8247 44.8465 80.9373 45.7854 80.0073 45.9824C79.6074 46.0813 79.8074 46.5754 80.1072 46.5754C80.2034 46.5754 82.5466 46.2549 85.2188 45.8892C87.1775 45.6212 89.3127 45.329 90.8699 45.1212ZM88.4446 40.7186C88.2566 40.4294 88.0642 40.1433 87.8679 39.8603C86.082 40.6529 84.2664 41.4663 82.803 42.1219C81.4043 42.7485 80.3276 43.2308 79.9072 43.4127C79.5073 43.6103 79.8074 44.1045 80.1072 44.0057C80.165 43.9485 84.3684 42.3049 88.4446 40.7186ZM85.6758 37.0251C85.4829 36.8006 85.2869 36.5786 85.0884 36.3592C83.353 37.4311 81.7695 38.4087 80.6455 39.1025L79.1074 40.0522C78.7075 40.3487 79.1074 40.744 79.3074 40.6452C79.344 40.627 79.8494 40.339 80.6704 39.8709C81.8433 39.2022 83.6602 38.1661 85.6758 37.0251ZM28.2634 44.8344C30.0469 45.0706 32.521 45.4109 34.6367 45.7019C36.9482 46.0198 38.8318 46.2789 38.9182 46.2789C39.218 46.2789 39.418 45.7848 39.0183 45.6859C38.0879 45.4888 34.1982 44.5494 30.9604 43.7674C30.2771 43.6024 29.6228 43.4443 29.0315 43.3018C28.7632 43.8053 28.5071 44.3163 28.2634 44.8344ZM30.7092 40.4842C34.7173 42.0511 38.8042 43.6527 38.9182 43.7092C39.1182 43.808 39.5181 43.3138 39.1182 43.1161C38.6365 42.9078 37.2937 42.3142 35.592 41.5619C34.2886 40.9855 32.7742 40.3161 31.2751 39.6554C31.0825 39.9287 30.894 40.2051 30.7092 40.4842ZM33.3577 36.9864C36.7805 38.937 39.6289 40.5464 39.718 40.5464C39.8179 40.6452 40.3179 40.2498 39.918 39.9533C39.6055 39.7603 38.8508 39.2958 37.8213 38.6623C36.7666 38.0132 35.4233 37.1866 33.9719 36.2926C33.7642 36.5211 33.5593 36.7524 33.3577 36.9864ZM78.0078 59.5232C78.8076 59.029 79.5073 58.6336 80.2073 58.1394C80.3127 58.0873 80.4182 58.0627 80.5088 58.0655C80.5901 58.068 80.6597 58.0927 80.707 58.1394C80.8069 58.2383 81.5068 58.6336 81.6067 58.6336C81.7068 58.6336 82.0066 58.8313 81.6067 59.029C80.8071 59.4243 78.8076 60.215 77.9077 59.8197C77.8079 59.7208 77.8079 59.622 78.0078 59.5232ZM83.8062 56.3604C84.3062 55.965 85.106 55.1743 85.4058 54.9766C85.6057 54.6801 86.2056 54.6801 86.2056 54.6801C86.2056 54.6801 87.905 55.1743 88.2051 55.2732C88.5049 55.372 88.605 55.5697 88.3049 55.7673C87.5051 56.4592 85.6057 57.5464 83.9062 56.8546C83.7063 56.8546 83.6062 56.558 83.8062 56.3604ZM37.3186 58.6336C37.4187 58.5348 38.1184 58.2383 38.2185 58.1394C38.4185 58.0406 38.6184 58.0406 38.8184 58.1394C39.5181 58.6336 40.2178 59.1278 40.9177 59.5232C41.0352 59.5812 41.0835 59.6392 41.0833 59.6973C41.0833 59.7381 41.0588 59.7789 41.0176 59.8197C40.1179 60.215 38.2185 59.4243 37.3186 59.029C37.0188 58.8313 37.2188 58.6336 37.3186 58.6336ZM30.9204 55.372C31.2202 55.2732 32.9199 54.779 32.9199 54.779C32.9199 54.779 33.4197 54.6801 33.7197 55.0755C33.8025 55.1572 33.9875 55.3234 34.2188 55.5251C34.5466 55.8114 34.9673 56.1693 35.3191 56.4592C35.519 56.6569 35.4192 56.8546 35.2192 56.9534C33.5198 57.5464 31.6201 56.4592 30.8203 55.8662C30.6204 55.6685 30.6204 55.4708 30.9204 55.372ZM59.6128 45.0929H63.0117C63.0117 45.0929 64.3115 45.0929 64.0115 43.6103C63.7117 42.4243 61.812 32.4417 61.812 32.4417C61.6121 33.2324 61.2122 33.8254 60.8123 33.8254H60.6123H59.5127H58.2131C58.2131 33.8254 57.4133 33.8254 56.9133 34.6161H54.814C52.9146 34.6161 51.4148 36.0987 51.4148 37.9766C51.4148 37.9766 53.1145 36.8894 54.814 36.8894H56.4136C56.4136 36.9882 56.3887 37.087 56.3635 37.1859C56.3384 37.2847 56.3135 37.3835 56.3135 37.4824H55.1138C53.4143 37.4824 52.4146 38.1743 52.4146 38.1743C52.9199 38.0633 53.3306 38.1393 53.8062 38.2273C54.1772 38.2959 54.5879 38.3719 55.1138 38.3719H56.2136C55.8137 40.4475 55.3137 42.9185 55.2139 43.7092C54.9138 45.0929 56.2136 45.0929 56.2136 45.0929H59.6128ZM58.5129 34.6161H60.2124C59.8127 35.308 58.9128 36.494 58.5129 36.3952C58.0132 36.3952 57.6133 35.9998 57.6133 35.5056C57.6133 35.0114 58.0132 34.6161 58.5129 34.6161ZM75.8083 81.0698C75.9082 80.9709 80.2073 79.5872 80.2073 79.5872C80.2073 79.5872 76.0083 78.2035 75.9082 78.2035C75.8083 78.2035 75.8083 78.3023 75.8083 78.3023L76.1082 79.686H71.0095C71.2095 79.2907 71.3096 78.9942 71.3096 78.9942L71.5095 78.5988C71.6094 78.4011 71.6094 78.2035 71.4094 78.1046C71.1096 78.0058 69.51 77.2151 69.51 77.2151L67.2107 71.2848C66.6707 71.6133 66.355 71.8054 66.0342 71.9885C65.583 72.2462 65.1218 72.4862 64.0115 73.0639L66.4109 78.0058C66.4109 78.0058 66.3582 78.0841 66.2932 78.2006C66.2317 78.3106 66.1594 78.4547 66.1108 78.5988C66.011 78.9942 66.2109 78.9942 66.3108 78.9942H67.4106H69.8101C70.01 78.9942 70.1099 78.9942 70.01 79.1918C69.9099 79.2907 69.8101 79.5872 69.8101 79.5872H63.9116L64.1001 80.1802H60.0125V79.5872H55.1138H49.3154L49.1155 79.1918C49.1155 79.093 49.1155 78.9942 49.3154 78.9942H51.7148H52.8145C52.9146 78.9942 53.1145 78.8953 53.0144 78.5988C52.8145 78.3023 52.7146 78.0058 52.7146 78.0058L55.1138 73.0639C53.2144 72.0755 53.2144 72.0755 51.9148 71.2848L49.6152 77.2151C49.6152 77.2151 49.0388 77.4832 48.5178 77.7267C48.1443 77.9014 47.7993 78.0633 47.7158 78.1046C47.5159 78.2035 47.5159 78.4011 47.616 78.5988L47.8159 78.9942C47.8159 78.9942 47.8552 79.1112 47.9343 79.2963C47.981 79.4058 48.0415 79.5391 48.1157 79.686H43.3171L43.0171 78.2035H38.9182L39.218 79.686L38.9182 81.1686H43.0171L43.217 80.2791H48.4158C48.6157 80.7733 48.8157 81.3663 48.9155 81.4651C49.1155 81.6628 49.3154 81.6628 49.4155 81.6628C49.5154 81.6628 51.5149 81.2675 51.7148 81.1686C51.9148 81.1686 52.0146 80.9709 52.0146 80.8721C52.0747 80.8128 52.1345 80.6469 52.1946 80.4809C52.2346 80.3701 52.2747 80.2593 52.3147 80.1802H54.9253L54.0142 83.0465C54.0142 83.0465 57.5132 86.2093 59.0129 87V80.1802H60.0125V86.9012C61.5122 86.1105 65.0112 83.0465 65.0112 83.0465L64.1001 80.1802H66.6108C66.6653 80.2878 66.7493 80.454 66.8145 80.5991C66.8691 80.7205 66.9106 80.827 66.9106 80.8721C66.9106 80.9709 67.0107 81.0698 67.2107 81.1686C67.4106 81.2675 69.4102 81.6628 69.51 81.6628C69.6101 81.7616 69.9099 81.7616 70.01 81.4651C70.01 81.3663 70.3098 80.8721 70.5098 80.2791H75.8083L75.7083 80.9709C75.7083 80.9709 75.7083 81.0698 75.8083 81.0698ZM59.0129 80.1802H54.9253L55.1138 79.5872L59.0129 79.686V80.1802ZM39.3181 79.5872H43.1172L42.8171 80.9709H39.0183L39.3181 79.5872ZM79.8074 79.5872L75.9082 80.8721L76.2083 79.5872H79.8074ZM56.5134 52.9999H62.6118L62.7119 72.372C61.3123 73.0639 60.2124 73.5581 59.6128 73.5581C59.0129 73.6569 57.8132 73.1628 56.5134 72.4709V52.9999ZM63.6116 52.9999H68.8103C69.3101 52.9999 69.71 53.3952 69.71 53.8894V68.5174C69.71 68.5174 66.5107 70.4941 63.6116 71.9767V52.9999ZM69.71 51.122V46.7731C69.71 46.2789 69.3101 45.8836 68.9102 45.8836H50.2151C49.7153 45.8836 49.3154 46.2789 49.3154 46.7731V51.122C49.3154 51.6161 49.7153 52.0115 50.2151 52.0115H68.8103C69.3101 52.0115 69.71 51.6161 69.71 51.122ZM54.5142 48.4534L53.2144 49.3429L53.7144 50.8255L52.4146 49.9359L51.115 50.8255L51.6147 49.3429L50.3152 48.4534H51.9148L52.4146 46.9708L52.9146 48.4534H54.5142ZM61.6121 48.4534L60.3125 49.3429L60.8123 50.8255L59.5127 49.9359L58.2131 50.8255L58.7129 49.3429L57.4133 48.4534H59.0129L59.5127 46.9708L60.0125 48.4534H61.6121ZM68.7102 48.4534L67.4106 49.3429L67.9104 50.8255L66.6108 49.9359L65.311 50.8255L65.811 49.3429L64.5115 48.4534H66.1108L66.6108 46.9708L67.1106 48.4534H68.7102ZM59.0129 74.7441V78.8953H55.3137L56.9133 73.9534C57.8132 74.3488 58.5129 74.6453 59.0129 74.7441ZM62.1121 73.8546L63.7117 78.8953H60.1125V74.7441C60.6123 74.5465 61.3123 74.25 62.1121 73.8546Z" fill="#0B558E"/>
<path fill-rule="evenodd" clip-rule="evenodd" d="M27.3462 46.9691C27.5477 46.4526 27.7612 45.9421 27.9864 45.4381C27.549 45.3807 27.1791 45.3335 26.9 45.3C26.6 45.3 26.4 45.4 26.6 45.7C26.7668 46.0057 27.0263 46.466 27.3462 46.9691ZM28.7676 43.8068C29.2869 42.7919 29.855 41.8061 30.4688 40.8525C27.7104 39.7621 25.1061 38.7345 24 38.3C23.6 38.2 23.5 38.3 23.6 38.7C24.1 40 25.4 43 27.5 43.5C27.8329 43.5799 28.2651 43.6846 28.7676 43.8068ZM31.0472 39.9831C31.7072 39.0228 32.4145 38.0975 33.1659 37.2107C30.8865 35.8957 28.4224 34.4689 26.3829 33.2879L26.3822 33.2875C24.7402 32.3367 23.3735 31.5453 22.6 31.1C22.2 30.9 22 31 22 31.4C22.2 33 23 36.5 24.7 37.2C25.65 37.5886 28.2596 38.7418 31.0472 39.9831ZM33.7962 36.4872C34.7842 35.3845 35.8421 34.3456 36.963 33.3777C34.7877 31.7091 32.519 29.9677 30.4038 28.3442L30.4012 28.3422L30.4007 28.3418L30.3988 28.3404C26.6707 25.4788 23.4203 22.9839 22 21.9C21.5 21.5 21.2 21.6 21.2 22.1C21.2 24 21.4 28.7 23.3 29.9C24.622 30.7621 29.5448 33.8376 33.7962 36.4872ZM82.563 33.8413C83.642 34.8118 84.6594 35.8493 85.6087 36.9473C90.0089 34.1985 95.3732 30.8443 96.7 30C98.6 28.8 98.8 24.1 98.8 22.2C98.8 21.7 98.5 21.6 98 22C96.5829 23.0815 93.3438 25.5677 89.6261 28.4213L89.6007 28.4408L89.5999 28.4415C87.3295 30.1841 84.8821 32.0626 82.563 33.8413ZM86.1834 37.6296C86.9436 38.556 87.6565 39.5226 88.3183 40.5259C91.3365 39.1708 94.2782 37.8716 95.3 37.5C97 36.8 97.8 33.2 98 31.7C98.1 31.3 97.9 31.1 97.4 31.4C95.5736 32.2855 90.4389 35.1928 86.1834 37.6296ZM88.8759 41.3993C89.4535 42.3345 89.9876 43.2995 90.4754 44.2912C91.3039 44.0892 92.0097 43.9177 92.5 43.8C94.6 43.3 95.9 40.3 96.4 39C96.5 38.6 96.4 38.4 96 38.6L94.8347 39.0576C93.3661 39.6341 91.1371 40.5091 88.8759 41.3993ZM91.1951 45.8517C91.5057 46.5718 91.7924 47.3047 92.0543 48.0493C92.506 47.4292 92.9055 46.7898 93.1973 46.3227C93.2723 46.2027 93.3402 46.094 93.4 46C93.5 45.7 93.4 45.6 93.1 45.6C92.6715 45.6536 92.0039 45.7422 91.1951 45.8517ZM25.807 52.0474C25.7437 52.3349 25.684 52.6237 25.6279 52.9139C25.5838 52.875 25.5412 52.837 25.5 52.8C25.1 52.4 25.1 52.2 25.5 52.1C25.5562 52.0859 25.6637 52.068 25.807 52.0474ZM26.7591 48.5945C26.6483 48.9275 26.5424 49.2626 26.4415 49.6L22.8001 49.6L22.7743 49.6013C21.1808 49.6647 19.3963 46.392 18.7 44.9C18.55 44.6 18.6813 44.4125 18.925 44.3797C18.9741 44.3731 19.0277 44.3727 19.0845 44.379C19.1218 44.3831 19.1605 44.3901 19.2001 44.4C19.2064 44.4 19.2136 44.4002 19.2219 44.4007C19.2384 44.4015 19.2589 44.4032 19.2831 44.4057C20.0277 44.4819 24.3001 45.3 24.3001 45.3C24.3001 45.3 25.1001 45.5 25.7001 46.5C25.7986 46.697 25.8971 46.9 25.9971 47.1061L25.9971 47.1061C26.2358 47.5983 26.483 48.1079 26.7591 48.5945ZM93.5132 53.692C93.4181 53.1308 93.3094 52.5742 93.1875 52.0225C93.7983 52.0923 94.3448 52.1612 94.5 52.2C94.9 52.3 94.9 52.5 94.5 52.9C94.2355 53.1381 93.901 53.4181 93.5132 53.692ZM100.6 27.8C99.9 28.2 99.4 27.8 99.4 27.4C99.5 27.1 99.5 26.7 99.5 26.4L99.8 22.6C99.9 21.2 100.9 20.5 100.9 20.5L105.4 16.8C105.682 16.5183 105.963 16.3 106.209 16.1095L106.209 16.1095L106.21 16.1095L106.21 16.1094C106.4 15.9619 106.569 15.8309 106.7 15.7C107.2 15.2 107.5 15.4 107.5 15.9C107.5 17.9 107.5 23.1 105.4 24.5C104.6 25.1 102.9 26.3 100.6 27.8ZM94.0031 47.2061L94.0034 47.2055L94.004 47.2043C94.1037 46.9988 94.2018 46.7964 94.3 46.6C94.9 45.5 95.7 45.4 95.7 45.4C95.7 45.4 100.4 44.6 100.8 44.5C101.3 44.4 101.5 44.6 101.3 45C100.6 46.4 98.8 49.7 97.2 49.7H93.3C93.1 49.7 92.8 49.5 93 49.1C93.3769 48.497 93.697 47.8372 94.003 47.2063L94.0031 47.2062L94.0031 47.2061ZM98.5001 34.1774L98.5002 34.1765C98.6335 33.3547 98.7668 32.533 98.9 31.8C99.0901 30.9448 99.3704 30.7216 99.8269 30.3583L99.9 30.3C100.28 30.1098 102.55 28.7139 104.211 27.692L104.211 27.6919L104.213 27.691C105.171 27.1014 105.927 26.6366 106 26.6C106.3 26.4 106.7 26.5 106.6 26.9C106.4 28.6 105.7 32.6 103.8 33.5C103.397 33.7013 102.897 33.9351 102.3 34.2144L102.3 34.2144L102.3 34.2145L102.299 34.2148C101.413 34.629 100.314 35.1432 99 35.8C98.7 35.9 98.2 35.9 98.3 35.4C98.3667 34.9999 98.4334 34.5888 98.5001 34.1776L98.5001 34.1774ZM97.1091 39.8181C97.1734 39.6422 97.2367 39.4689 97.3 39.3C97.4 39 97.6 38.5 98.4 38.3C99.2 38 103.8 36.4 104.4 36.2C104.9 36 105.1 36.2 104.9 36.8C104.3 38.3 102.8 41.2 100.6 41.7C99.8 41.9 98.4 42.2 96.8 42.5C96.5 42.5 96 42.4 96.3 41.8C96.6156 41.1689 96.8689 40.4755 97.1091 39.8181L97.1091 39.8181ZM19.1 20.4C19.1 20.4 20.2 21.1 20.2 22.5L20.5 26.3C20.5 26.45 20.525 26.625 20.55 26.8C20.575 26.975 20.6 27.15 20.6 27.3C20.6 27.7 20.1 28.1 19.4 27.7C17.8785 26.7491 16.6786 25.8785 15.8001 25.2412L15.8001 25.2412L15.8 25.2412C15.2929 24.8732 14.8929 24.583 14.6 24.4C12.5 23 12.4 17.9 12.5 15.8C12.5 15.3 12.8 15.2 13.3 15.6C13.6 15.9 14.1 16.3 14.6 16.7L19.1 20.4ZM15.7889 27.6919L15.7889 27.692C17.4503 28.7139 19.7197 30.1098 20.1 30.3L20.1732 30.3583C20.6296 30.7216 20.91 30.9448 21.1 31.8C21.2 33 21.4 34.2 21.7 35.4C21.8 35.9 21.3 35.9 21 35.8C18.8 34.7 17.2 33.9 16.2 33.5C14.3 32.6 13.6 28.6 13.4 26.9C13.4 26.5 13.8 26.5 14 26.6C14.0732 26.6366 14.8297 27.1019 15.7889 27.6919ZM15.6 36.1C16.2 36.3 20.8 37.9 21.6 38.2C22.3508 38.4815 22.5731 38.9392 22.6803 39.1597L22.6917 39.1831L22.7 39.2C22.7633 39.3686 22.8265 39.5417 22.8907 39.7174L22.8909 39.718L22.891 39.7181C23.1312 40.3755 23.3845 41.0689 23.7 41.7C24 42.4 23.5 42.5 23.2 42.4C21.6 42.1 20.2 41.8 19.4 41.6C17.2 41.1 15.7 38.2 15.1 36.7C14.8 36.2 15 35.9 15.6 36.1Z" fill="#0B558E"/>
<path d="M28.7482 16.7509L29.8594 15.9728L36.5967 22.0235L37.0927 21.8353L37.5411 22.4757L35.3984 23.9759L34.95 23.3356L35.42 22.8474L34.1652 21.6583L32.4889 22.8321L33.1846 24.4286L33.6354 24.2561L34.0838 24.8964L32.2317 26.1933L31.776 25.558L32.1371 25.1461L28.7482 16.7509ZM30.3804 18.032C31.1284 19.5661 31.414 20.4275 32.1037 21.9883L33.4968 21.0129C32.254 19.8389 31.5665 19.2635 30.3804 18.032Z" fill="#0B558E"/>
<path d="M35.6603 13.7028L35.2029 13.7285L34.8603 12.9938L36.694 12.1388C37.9982 14.1602 39.1139 15.7429 40.3805 17.788C39.576 15.5224 38.9469 13.7165 38.2339 11.4209L40.0726 10.5636L40.4153 11.2984L39.9825 11.6878L43.7524 18.5435L44.2893 18.452L44.6209 19.163L42.746 20.0371L42.4144 19.326L42.8763 18.9664C41.6111 16.5696 40.7456 15.0347 39.4752 12.6406C40.3973 15.3941 41.0111 17.227 41.8559 20.0048L41.029 20.3904C39.4083 17.9746 38.2503 16.5279 36.6658 14.0883C37.7126 16.5872 38.2938 18.1164 39.3323 20.6187L39.6413 20.6189L39.973 21.33L38.679 21.9333L38.3473 21.2222L38.5365 20.9897L35.6603 13.7028Z" fill="#0B558E"/>
<path d="M44.245 10.1015L43.4115 10.1486L43.2014 9.36539L48.4616 7.95709L49.1591 10.0451L48.4683 10.23L47.8072 9.06657L45.645 9.52359L46.5563 12.9219L47.9179 12.5167L47.798 11.4385L48.4297 11.2694L49.2495 14.3266L48.6179 14.4957L48.1686 13.4515L46.7867 13.7809L47.7421 17.3434L50.0897 16.5524L50.2285 14.7821L51.0398 14.8493L51.4032 17.2298L45.7285 18.7491L45.5252 17.9911L46.271 17.656L44.245 10.1015Z" fill="#0B558E"/>
<path d="M53.1331 16.0844L53.8479 15.8913L53.1672 8.12977L52.4618 8.00824L52.3924 7.21652L53.7254 7.10018C53.8418 7.09001 53.9701 7.07446 54.1103 7.0535C54.2505 7.03254 54.357 7.01453 54.4298 6.99946C54.7454 6.93703 55.0074 6.89673 55.2158 6.87854C55.8471 6.82344 56.3606 6.87017 56.7565 7.01871C57.1524 7.16725 57.4525 7.42007 57.6567 7.77716C57.861 8.13425 57.9896 8.61564 58.0428 9.22133C58.0951 9.81837 58.0303 10.382 57.8483 10.9123C57.6663 11.4426 57.3692 11.8217 56.9569 12.0495C57.2149 12.1752 57.456 12.4244 57.6801 12.7972C57.9043 13.17 58.1509 13.6586 58.4201 14.2628C58.6104 14.6734 58.7538 14.9705 58.8502 15.1539C58.9519 15.3281 59.0438 15.4247 59.1257 15.4437L59.4405 15.547L59.5076 16.3128L57.9448 16.4492C57.8468 16.4577 57.7305 16.3284 57.5959 16.0611C57.4666 15.7847 57.2897 15.3511 57.0649 14.7604C56.8005 14.0685 56.5773 13.53 56.3953 13.1448C56.2133 12.7596 56.0354 12.5266 55.8615 12.4459L54.9147 12.5285L55.1992 15.7733L56.0564 15.8293L56.1247 16.608L53.2014 16.8632L53.1331 16.0844ZM55.691 11.663C56.0403 11.6325 56.2975 11.4313 56.4625 11.0595C56.6275 10.6876 56.6789 10.1469 56.6166 9.43735C56.5613 8.8057 56.4222 8.34702 56.1995 8.06129C55.983 7.77502 55.6388 7.65249 55.1669 7.69367C54.9953 7.70865 54.8493 7.73447 54.729 7.77112C54.6141 7.79859 54.5383 7.81393 54.5015 7.81714L54.843 11.7109C54.918 11.7218 55.0965 11.7149 55.3784 11.6903L55.691 11.663Z" fill="#0B558E"/>
<path d="M64.0026 8.00351L61.8393 7.6436L61.9192 6.73029L67.722 7.23796L67.6421 8.15128L65.4548 8.13056L64.7917 15.7092L66.9517 16.0426L66.8752 16.9168L61.0724 16.4091L61.15 15.5219L63.3395 15.5822L64.0026 8.00351Z" fill="#0B558E"/>
<path d="M71.8218 18.3459C70.7017 18.0458 69.9588 17.3926 69.5928 16.3863C69.2292 15.3716 69.2452 14.126 69.6408 12.6494C69.9016 11.6761 70.2835 10.8702 70.7865 10.2317C71.2983 9.58646 71.8805 9.13997 72.533 8.89217C73.1855 8.64436 73.8577 8.61315 74.5495 8.79851C74.8394 8.87619 75.1126 8.97639 75.3693 9.09911C75.6282 9.21344 75.932 9.35779 76.2807 9.53216C76.5417 9.66504 76.6853 9.735 76.7117 9.74207L75.9083 12.3054L74.9991 12.0618L75.1749 10.1801C75.1272 10.0684 75.0223 9.95931 74.8601 9.85292C74.6979 9.74652 74.4785 9.65625 74.2018 9.58211C73.6418 9.43205 73.1017 9.64253 72.5815 10.2135C72.0701 10.7779 71.6469 11.6852 71.312 12.9353C70.9882 14.1434 70.8855 15.1725 71.0038 16.0225C71.122 16.8725 71.4908 17.3804 72.1101 17.5464C72.4066 17.6258 72.6429 17.6532 72.819 17.6284C73.004 17.5971 73.1704 17.5292 73.3184 17.425L74.1006 16.2453L74.9038 16.5684L74.1834 18.4661C74.0406 18.4458 73.8932 18.4423 73.7414 18.4556C73.5984 18.4622 73.5093 18.4653 73.4741 18.4649C73.1858 18.4866 72.9196 18.4917 72.6755 18.4802C72.4358 18.4789 72.1512 18.4341 71.8218 18.3459Z" fill="#0B558E"/>
<path d="M81.9103 11.4636L83.1399 12.037L81.2685 20.8968L81.6796 21.2322L81.3492 21.9407L78.9785 20.8352L79.3089 20.1267L79.9667 20.2897L80.3691 18.6085L78.5142 17.7436L77.4795 19.1443L77.8543 19.4484L77.5239 20.1569L75.4747 19.2014L75.797 18.4891L76.3343 18.5959L81.9103 11.4636ZM81.617 13.5177C80.6624 14.9325 80.0592 15.6105 79.0524 16.9882L80.5938 17.707C80.989 16.0437 81.1436 15.1606 81.617 13.5177Z" fill="#0B558E"/>
<path d="M87.9294 15.874L87.466 15.3424L87.9304 14.6791L89.5417 15.8073C89.0068 18.4172 88.5065 20.2783 87.7788 23.4114L91.3493 18.2686L90.9796 17.8025L91.444 17.1393L93.2043 18.3719L92.7399 19.0351L92.096 18.7915L87.0925 25.937L86.2337 25.3357C86.8055 22.5446 87.2104 20.8719 87.8867 17.6114L84.2379 22.8223L84.6956 23.3022L84.2462 23.9441L82.3652 22.627L82.8146 21.9852L83.4503 22.2708L87.9294 15.874Z" fill="#0B558E"/>
<path d="M24.4591 86.7569L24.188 86.1698L24.8082 85.6493L26.4561 87.6132L25.8359 88.1336L25.2505 87.7001L22.7396 89.807L24.3875 91.7709L26.8984 89.664L26.611 89.0574L27.2313 88.537L28.8575 90.475L28.2372 90.9955L27.6952 90.6136L21.7131 95.6332L22.0251 96.2081L21.4249 96.7117L19.7932 94.7672L20.3934 94.2636L20.9163 94.6836L23.6272 92.4088L21.9793 90.4449L19.2684 92.7197L19.6237 93.3463L19.0235 93.8499L17.3648 91.8731L17.965 91.3695L18.477 91.7765L24.4591 86.7569Z" fill="#0B558E"/>
<path d="M31.4632 92.9731L32.5025 93.8451L28.4018 101.919L28.712 102.349L28.2095 102.948L26.2057 101.267L26.7082 100.668L27.3014 100.995L28.1252 99.4756L26.5575 98.1601L25.1955 99.2452L25.4788 99.636L24.9763 100.235L23.2442 98.7815L23.7399 98.1769L24.2312 98.4191L31.4632 92.9731ZM30.6482 94.8813C29.36 96.0007 28.6019 96.4996 27.2728 97.5697L28.5756 98.6629C29.3879 97.1586 29.7658 96.3456 30.6482 94.8813Z" fill="#0B558E"/>
<path d="M37.1916 98.3556L35.3831 97.1152L35.8416 96.3212L40.8861 99.2337L40.4277 100.028L38.4541 99.0845L34.6503 105.673L36.467 106.888L36.0282 107.648L30.9836 104.735L31.429 103.964L33.3878 104.944L37.1916 98.3556Z" fill="#0B558E"/>
<path d="M42.7726 101.071L42.0715 100.635L42.3488 99.8728L45.5043 101.021L45.2269 101.783L44.2222 101.599L41.5515 108.936L43.702 109.593L45.1598 107.521L45.9093 107.947L44.4584 110.982L39.0054 108.998L39.2738 108.26L40.0975 108.421L42.7726 101.071Z" fill="#0B558E"/>
<path d="M56.9248 112.465L57.6538 112.334V104.543L56.9617 104.361V103.566H58.2997C58.4166 103.566 58.5458 103.562 58.6873 103.553C58.8288 103.544 58.9365 103.536 59.0103 103.527C59.3302 103.492 59.5947 103.475 59.8039 103.475C60.4375 103.475 60.945 103.566 61.3264 103.748C61.7079 103.931 61.9847 104.209 62.1569 104.582C62.3292 104.956 62.4153 105.446 62.4153 106.054C62.4153 106.654 62.3015 107.21 62.0739 107.722C61.8463 108.235 61.5172 108.586 61.0865 108.777C61.3326 108.925 61.551 109.194 61.7417 109.585C61.9324 109.976 62.1354 110.484 62.3507 111.11C62.5045 111.535 62.6214 111.844 62.7014 112.035C62.7875 112.217 62.8706 112.321 62.9505 112.347L63.2551 112.478V113.246H61.6863C61.5879 113.246 61.4833 113.107 61.3726 112.829C61.268 112.543 61.1296 112.096 60.9573 111.488C60.7543 110.775 60.579 110.219 60.4314 109.82C60.2837 109.42 60.1268 109.173 59.9607 109.077H59.0103V112.334L59.8592 112.465V113.246H56.9248V112.465ZM59.8592 108.282C60.2099 108.282 60.4836 108.104 60.6805 107.748C60.8774 107.392 60.9758 106.858 60.9758 106.146C60.9758 105.512 60.8774 105.043 60.6805 104.739C60.4898 104.435 60.1576 104.283 59.6839 104.283C59.5117 104.283 59.364 104.296 59.241 104.322C59.1241 104.339 59.0472 104.348 59.0103 104.348V108.256C59.0841 108.274 59.2625 108.282 59.5455 108.282L59.8592 108.282Z" fill="#0B558E"/>
<path d="M65.5138 104.224L64.6794 104.198L64.5386 103.399L69.9013 102.454L70.4137 104.595L69.7094 104.719L69.1525 103.502L66.9588 103.77L67.5698 107.234L68.9615 106.949L68.9362 105.865L69.5802 105.751L70.1298 108.868L69.4859 108.982L69.1295 107.902L67.7242 108.11L68.3647 111.743L70.7723 111.159L71.0651 109.407L71.8674 109.545L72.0215 111.948L66.2361 112.968L66.0999 112.195L66.872 111.926L65.5138 104.224Z" fill="#0B558E"/>
<path d="M73.1484 102.55L72.3309 102.666L72.0534 101.905L75.209 100.756L75.4865 101.518L74.598 102.023L77.2696 109.36L79.3397 108.481L79.1241 105.957L79.9721 105.802L80.812 109.059L75.3587 111.043L75.0902 110.306L75.8245 109.899L73.1484 102.55Z" fill="#0B558E"/>
<path d="M81.729 99.0191L79.7507 99.9649L79.2922 99.1709L84.3362 96.2589L84.7947 97.0529L82.9913 98.2904L86.7955 104.879L88.7559 103.914L89.1947 104.674L84.1507 107.586L83.7053 106.814L85.5332 105.608L81.729 99.0191Z" fill="#0B558E"/>
<path d="M86.9242 95.4788L86.1887 95.8739L85.6675 95.2527L89.839 91.7526L91.3532 93.3504L90.8054 93.8101L89.7148 93.0349L87.9486 94.3632L90.2102 97.0584L91.2729 96.1155L90.7087 95.1889L91.2096 94.7686L93.2442 97.1932L92.7433 97.6135L91.895 96.8569L90.7819 97.7397L93.1528 100.565L94.946 98.8557L94.3237 97.1923L95.0873 96.9102L96.4224 98.9145L91.9221 102.69L91.4177 102.089L91.9519 101.47L86.9242 95.4788Z" fill="#0B558E"/>
<path d="M92.6724 90.4214L91.9621 91.0032L91.3406 90.4817L95.2445 85.8294L97.1297 87.2676L96.564 87.9418L95.1995 87.3284L93.5616 89.0564L96.3987 91.4368L97.4224 90.1558L96.6746 89.2554L97.1272 88.716L99.6735 90.8525L99.228 91.3835L98.1843 90.795L97.0904 92.0172L99.7069 94.2126L100.889 93.0072L101.491 93.5119L98.8244 96.6893L98.2229 96.1846L98.6673 95.4515L92.6724 90.4214Z" fill="#0B558E"/>
<path d="M33.7416 64.0308C32.9155 64.0308 32.2424 64.6948 32.2424 65.5098C32.2424 66.3204 32.9155 66.9844 33.7416 66.9844C34.5634 66.9844 35.2365 66.3204 35.2365 65.5098C35.2321 64.6905 34.5634 64.0308 33.7416 64.0308Z" fill="white"/>
<path d="M34.4233 70.6021C33.3743 70.6021 32.522 71.4428 32.522 72.4777C32.522 73.5125 33.3743 74.3576 34.4233 74.3576C35.4723 74.3576 36.3246 73.5125 36.3246 72.4777C36.3246 71.4428 35.4723 70.6021 34.4233 70.6021Z" fill="white"/>
<path d="M39.0261 67.7088C39.0261 67.0189 38.4579 66.4627 37.7673 66.4627C37.068 66.4627 36.5042 67.0232 36.5042 67.7088C36.5042 68.3944 37.068 68.9592 37.763 68.9592C38.4579 68.9592 39.0261 68.3987 39.0261 67.7088Z" fill="white"/>
<path d="M42.9117 67.6829C42.3172 67.6829 41.8364 68.1572 41.8364 68.7479C41.8364 69.3343 42.3172 69.8086 42.9117 69.8086C43.5061 69.8086 43.9913 69.3343 43.9913 68.7479C43.9913 68.1572 43.5061 67.6829 42.9117 67.6829Z" fill="white"/>
<path d="M39.5593 62C38.9649 62 38.4797 62.4743 38.4797 63.065C38.4797 63.6514 38.9649 64.1257 39.5593 64.1257C40.1538 64.1257 40.6389 63.6514 40.6389 63.065C40.6389 62.4743 40.1538 62 39.5593 62Z" fill="white"/>
<path d="M38.8993 72.6329C38.2349 72.6329 37.6973 73.1632 37.6973 73.8186C37.6973 74.4697 38.2349 75 38.8993 75C39.5592 75 40.0969 74.4697 40.0969 73.8186C40.0969 73.1632 39.5592 72.6329 38.8993 72.6329Z" fill="white"/>
<path d="M31.5912 64.5871L33.3351 62.8667C33.4706 62.733 33.4706 62.5174 33.3351 62.3881C33.2696 62.3234 33.1821 62.2889 33.0904 62.2889C32.9986 62.2889 32.9112 62.3234 32.8456 62.3881L31.1016 64.1085C30.9661 64.2421 30.9661 64.4577 31.1016 64.5871C31.1672 64.6517 31.2546 64.6862 31.3464 64.6862C31.4382 64.6905 31.5256 64.6517 31.5912 64.5871Z" fill="white"/>
<path d="M36.714 62.125C36.6222 62.125 36.5348 62.1595 36.4692 62.2242L34.9438 63.729C34.8782 63.7937 34.8433 63.8799 34.8433 63.9704C34.8433 64.061 34.8782 64.1472 34.9438 64.2119C35.0094 64.2766 35.0968 64.3111 35.1886 64.3111C35.2803 64.3111 35.3678 64.2766 35.4333 64.2119L36.9588 62.7071C37.0243 62.6424 37.0593 62.5562 37.0593 62.4656C37.0593 62.3751 37.0243 62.2888 36.9588 62.2242C36.8932 62.1595 36.8058 62.125 36.714 62.125Z" fill="white"/>
<path d="M32.3692 66.7257C32.3036 66.661 32.2162 66.6265 32.1244 66.6265C32.0326 66.6265 31.9452 66.661 31.8796 66.7257L31.3245 67.2733C31.189 67.407 31.189 67.6225 31.3245 67.7519C31.3901 67.8166 31.4775 67.8511 31.5693 67.8511C31.6611 67.8511 31.7485 67.8166 31.8141 67.7519L32.3692 67.2043C32.5003 67.075 32.5003 66.8594 32.3692 66.7257Z" fill="white"/>
<path d="M38.1647 63.9101L34.9871 67.0448C34.8516 67.1785 34.8516 67.3941 34.9871 67.5234C35.0527 67.5881 35.1401 67.6226 35.2319 67.6226C35.3237 67.6226 35.4111 67.5881 35.4767 67.5234L38.6543 64.3888C38.7898 64.2551 38.7898 64.0395 38.6543 63.9101C38.5887 63.8455 38.5013 63.811 38.4095 63.811C38.3177 63.811 38.2303 63.8455 38.1647 63.9101Z" fill="white"/>
<path d="M34.6682 67.7907C34.6026 67.726 34.5152 67.6915 34.4234 67.6915C34.3316 67.6915 34.2442 67.726 34.1787 67.7907L31.9495 69.9897C31.814 70.1234 31.814 70.339 31.9495 70.4683C32.0151 70.533 32.1025 70.5675 32.1943 70.5675C32.2861 70.5675 32.3735 70.533 32.4391 70.4683L34.6682 68.2693C34.8037 68.14 34.8037 67.9244 34.6682 67.7907Z" fill="white"/>
<path d="M38.7549 66.2988C38.7549 66.3894 38.7898 66.4756 38.8554 66.5403C38.921 66.605 39.0084 66.6395 39.1002 66.6395C39.192 66.6395 39.2794 66.605 39.3449 66.5403L43.0645 62.871C43.1301 62.8063 43.1651 62.7201 43.1651 62.6295C43.1651 62.539 43.1301 62.4527 43.0645 62.3881C42.999 62.3234 42.9116 62.2889 42.8198 62.2889C42.728 62.2889 42.6406 62.3234 42.575 62.3881L38.8554 66.0574C38.7898 66.1221 38.7549 66.2083 38.7549 66.2988Z" fill="white"/>
<path d="M36.3293 68.6487C36.2375 68.6487 36.1501 68.6832 36.0845 68.7479L35.0005 69.8172C34.8651 69.9509 34.8651 70.1665 35.0005 70.2958C35.0661 70.3605 35.1535 70.395 35.2453 70.395C35.3371 70.395 35.4245 70.3605 35.4901 70.2958L36.5741 69.2265C36.6396 69.1618 36.6746 69.0756 36.6746 68.9851C36.6746 68.8945 36.6396 68.8083 36.5741 68.7436C36.5085 68.6832 36.4211 68.6487 36.3293 68.6487Z" fill="white"/>
<path d="M43.6504 64.4275C43.5586 64.4275 43.4712 64.462 43.4056 64.5267L37.3957 70.4597C37.3301 70.5243 37.2952 70.6106 37.2952 70.7011C37.2952 70.7917 37.3301 70.8779 37.3957 70.9426C37.4613 71.0073 37.5487 71.0418 37.6405 71.0418C37.7323 71.0418 37.8197 71.0073 37.8852 70.9426L43.8995 65.0096C43.9651 64.9449 44.0001 64.8587 44.0001 64.7681C44.0001 64.6776 43.9651 64.5913 43.8995 64.5267C43.8296 64.462 43.7422 64.4275 43.6504 64.4275Z" fill="white"/>
<path d="M42.0899 69.6146C42.0243 69.5499 41.9369 69.5154 41.8451 69.5154C41.7533 69.5154 41.6659 69.5499 41.6003 69.6146L39.6509 71.5377C39.5154 71.6713 39.5154 71.8869 39.6509 72.0163C39.7165 72.0809 39.8039 72.1154 39.8957 72.1154C39.9875 72.1154 40.0749 72.0809 40.1405 72.0163L42.0899 70.0932C42.2254 69.9639 42.2254 69.7483 42.0899 69.6146Z" fill="white"/>
<path d="M43.3751 71.1108C43.2833 71.1108 43.1959 71.1453 43.1304 71.2099L41.0455 73.271C40.91 73.4046 40.91 73.6202 41.0455 73.7496C41.111 73.8143 41.1984 73.8488 41.2902 73.8488C41.382 73.8488 41.4694 73.8143 41.535 73.7496L43.6199 71.6886C43.7554 71.5549 43.7554 71.3393 43.6199 71.2099C43.5543 71.1496 43.4669 71.1108 43.3751 71.1108Z" fill="white"/>
<path d="M85.2584 64.0308C86.0845 64.0308 86.7576 64.6948 86.7576 65.5098C86.7576 66.3204 86.0845 66.9844 85.2584 66.9844C84.4366 66.9844 83.7635 66.3204 83.7635 65.5098C83.7679 64.6905 84.4366 64.0308 85.2584 64.0308Z" fill="white"/>
<path d="M84.5767 70.6021C85.6257 70.6021 86.478 71.4428 86.478 72.4777C86.478 73.5125 85.6257 74.3576 84.5767 74.3576C83.5277 74.3576 82.6754 73.5125 82.6754 72.4777C82.6754 71.4428 83.5277 70.6021 84.5767 70.6021Z" fill="white"/>
<path d="M79.9739 67.7088C79.9739 67.0189 80.5421 66.4627 81.2327 66.4627C81.932 66.4627 82.4958 67.0232 82.4958 67.7088C82.4958 68.3944 81.932 68.9592 81.237 68.9592C80.5421 68.9592 79.9739 68.3987 79.9739 67.7088Z" fill="white"/>
<path d="M76.0883 67.6829C76.6828 67.6829 77.1636 68.1572 77.1636 68.7479C77.1636 69.3343 76.6828 69.8086 76.0883 69.8086C75.4939 69.8086 75.0087 69.3343 75.0087 68.7479C75.0087 68.1572 75.4939 67.6829 76.0883 67.6829Z" fill="white"/>
<path d="M79.4407 62C80.0351 62 80.5203 62.4743 80.5203 63.065C80.5203 63.6514 80.0351 64.1257 79.4407 64.1257C78.8462 64.1257 78.3611 63.6514 78.3611 63.065C78.3611 62.4743 78.8462 62 79.4407 62Z" fill="white"/>
<path d="M80.1007 72.6329C80.7651 72.6329 81.3027 73.1632 81.3027 73.8186C81.3027 74.4697 80.7651 75 80.1007 75C79.4408 75 78.9031 74.4697 78.9031 73.8186C78.9031 73.1632 79.4408 72.6329 80.1007 72.6329Z" fill="white"/>
<path d="M87.4088 64.5871L85.6649 62.8667C85.5294 62.733 85.5294 62.5174 85.6649 62.3881C85.7304 62.3234 85.8179 62.2889 85.9096 62.2889C86.0014 62.2889 86.0888 62.3234 86.1544 62.3881L87.8984 64.1085C88.0339 64.2421 88.0339 64.4577 87.8984 64.5871C87.8328 64.6517 87.7454 64.6862 87.6536 64.6862C87.5618 64.6905 87.4744 64.6517 87.4088 64.5871Z" fill="white"/>
<path d="M82.286 62.125C82.3778 62.125 82.4652 62.1595 82.5308 62.2242L84.0562 63.729C84.1218 63.7937 84.1567 63.8799 84.1567 63.9704C84.1567 64.061 84.1218 64.1472 84.0562 64.2119C83.9906 64.2766 83.9032 64.3111 83.8114 64.3111C83.7197 64.3111 83.6322 64.2766 83.5667 64.2119L82.0412 62.7071C81.9757 62.6424 81.9407 62.5562 81.9407 62.4656C81.9407 62.3751 81.9757 62.2888 82.0412 62.2242C82.1068 62.1595 82.1942 62.125 82.286 62.125Z" fill="white"/>
<path d="M86.6308 66.7257C86.6964 66.661 86.7838 66.6265 86.8756 66.6265C86.9674 66.6265 87.0548 66.661 87.1204 66.7257L87.6755 67.2733C87.811 67.407 87.811 67.6225 87.6755 67.7519C87.6099 67.8166 87.5225 67.8511 87.4307 67.8511C87.3389 67.8511 87.2515 67.8166 87.1859 67.7519L86.6308 67.2043C86.4997 67.075 86.4997 66.8594 86.6308 66.7257Z" fill="white"/>
<path d="M80.8353 63.9101L84.0129 67.0448C84.1484 67.1785 84.1484 67.3941 84.0129 67.5234C83.9473 67.5881 83.8599 67.6226 83.7681 67.6226C83.6763 67.6226 83.5889 67.5881 83.5233 67.5234L80.3457 64.3888C80.2102 64.2551 80.2102 64.0395 80.3457 63.9101C80.4113 63.8455 80.4987 63.811 80.5905 63.811C80.6823 63.811 80.7697 63.8455 80.8353 63.9101Z" fill="white"/>
<path d="M84.3318 67.7907C84.3974 67.726 84.4848 67.6915 84.5766 67.6915C84.6684 67.6915 84.7558 67.726 84.8213 67.7907L87.0505 69.9897C87.186 70.1234 87.186 70.339 87.0505 70.4683C86.9849 70.533 86.8975 70.5675 86.8057 70.5675C86.7139 70.5675 86.6265 70.533 86.5609 70.4683L84.3318 68.2693C84.1963 68.14 84.1963 67.9244 84.3318 67.7907Z" fill="white"/>
<path d="M80.2451 66.2988C80.2451 66.3894 80.2102 66.4756 80.1446 66.5403C80.079 66.605 79.9916 66.6395 79.8998 66.6395C79.808 66.6395 79.7206 66.605 79.6551 66.5403L75.9355 62.871C75.8699 62.8063 75.8349 62.7201 75.8349 62.6295C75.8349 62.539 75.8699 62.4527 75.9355 62.3881C76.001 62.3234 76.0884 62.2889 76.1802 62.2889C76.272 62.2889 76.3594 62.3234 76.425 62.3881L80.1446 66.0574C80.2102 66.1221 80.2451 66.2083 80.2451 66.2988Z" fill="white"/>
<path d="M82.6707 68.6487C82.7625 68.6487 82.8499 68.6832 82.9155 68.7479L83.9995 69.8172C84.1349 69.9509 84.1349 70.1665 83.9995 70.2958C83.9339 70.3605 83.8465 70.395 83.7547 70.395C83.6629 70.395 83.5755 70.3605 83.5099 70.2958L82.4259 69.2265C82.3604 69.1618 82.3254 69.0756 82.3254 68.9851C82.3254 68.8945 82.3604 68.8083 82.4259 68.7436C82.4915 68.6832 82.5789 68.6487 82.6707 68.6487Z" fill="white"/>
<path d="M75.3496 64.4275C75.4414 64.4275 75.5288 64.462 75.5944 64.5267L81.6043 70.4597C81.6699 70.5243 81.7048 70.6106 81.7048 70.7011C81.7048 70.7917 81.6699 70.8779 81.6043 70.9426C81.5387 71.0073 81.4513 71.0418 81.3595 71.0418C81.2677 71.0418 81.1803 71.0073 81.1148 70.9426L75.1005 65.0096C75.0349 64.9449 74.9999 64.8587 74.9999 64.7681C74.9999 64.6776 75.0349 64.5913 75.1005 64.5267C75.1704 64.462 75.2578 64.4275 75.3496 64.4275Z" fill="white"/>
<path d="M76.9101 69.6146C76.9757 69.5499 77.0631 69.5154 77.1549 69.5154C77.2467 69.5154 77.3341 69.5499 77.3997 69.6146L79.3491 71.5377C79.4846 71.6713 79.4846 71.8869 79.3491 72.0163C79.2835 72.0809 79.1961 72.1154 79.1043 72.1154C79.0125 72.1154 78.9251 72.0809 78.8595 72.0163L76.9101 70.0932C76.7746 69.9639 76.7746 69.7483 76.9101 69.6146Z" fill="white"/>
<path d="M75.6249 71.1108C75.7167 71.1108 75.8041 71.1453 75.8696 71.2099L77.9545 73.271C78.09 73.4046 78.09 73.6202 77.9545 73.7496C77.889 73.8143 77.8016 73.8488 77.7098 73.8488C77.618 73.8488 77.5306 73.8143 77.465 73.7496L75.3801 71.6886C75.2446 71.5549 75.2446 71.3393 75.3801 71.2099C75.4457 71.1496 75.5331 71.1108 75.6249 71.1108Z" fill="white"/>
<path d="M16 75L17.1226 78.4549H20.7553L17.8164 80.5902L18.9389 84.0451L16 81.9098L13.0611 84.0451L14.1836 80.5902L11.2447 78.4549H14.8774L16 75Z" fill="#0B558E"/>
<path d="M12 61L13.1226 64.4549H16.7553L13.8164 66.5902L14.9389 70.0451L12 67.9098L9.06107 70.0451L10.1836 66.5902L7.24472 64.4549H10.8774L12 61Z" fill="#0B558E"/>
<path d="M12 46L13.1226 49.4549H16.7553L13.8164 51.5902L14.9389 55.0451L12 52.9098L9.06107 55.0451L10.1836 51.5902L7.24472 49.4549H10.8774L12 46Z" fill="#0B558E"/>
<path d="M103 75L101.877 78.4549H98.2447L101.184 80.5902L100.061 84.0451L103 81.9098L105.939 84.0451L104.816 80.5902L107.755 78.4549H104.123L103 75Z" fill="#0B558E"/>
<path d="M107 61L105.877 64.4549H102.245L105.184 66.5902L104.061 70.0451L107 67.9098L109.939 70.0451L108.816 66.5902L111.755 64.4549H108.123L107 61Z" fill="#0B558E"/>
<path d="M107 46L105.877 49.4549H102.245L105.184 51.5902L104.061 55.0451L107 52.9098L109.939 55.0451L108.816 51.5902L111.755 49.4549H108.123L107 46Z" fill="#0B558E"/>
<path fill-rule="evenodd" clip-rule="evenodd" d="M60 116C90.9279 116 116 90.9279 116 60C116 49.1363 112.907 38.9951 107.552 30.4093C108.187 29.2728 108.561 27.1411 108.769 25.0416C115.838 34.8852 120 46.9566 120 60C120 93.1371 93.1371 120 60 120C26.8629 120 0 93.1371 0 60C0 46.7077 4.32242 34.4249 11.6384 24.4806C11.7897 26.493 12.084 28.703 12.6097 30.1507C7.15597 38.7913 4 49.0271 4 60C4 90.9279 29.0721 116 60 116ZM101.98 17.1321L98.9124 19.728C88.8371 9.99082 75.1182 4 60 4C44.8606 4 31.1244 10.0077 21.0452 19.769L17.9776 17.1734C28.8021 6.55094 43.636 0 60 0C76.3428 0 91.1595 6.53396 101.98 17.1321Z" fill="#C4C6C8"/>
<path fill-rule="evenodd" clip-rule="evenodd" d="M59.5 98C80.763 98 98 80.763 98 59.5C98 56.5781 97.6745 53.7322 97.0578 50.9966H97.0728C97.6794 51.0374 98.3062 50.7091 98.9182 50.1621C99.6257 53.1598 100 56.2862 100 59.5C100 81.8675 81.8675 100 59.5 100C37.1325 100 19 81.8675 19 59.5C19 55.9872 19.4472 52.5788 20.2879 49.3287C20.8383 49.9884 21.4147 50.5162 21.9891 50.7915C21.342 53.5898 21 56.505 21 59.5C21 80.763 38.237 98 59.5 98ZM86.4335 29.2532C79.2763 22.8755 69.8407 19 59.5 19C49.4445 19 40.2449 22.6646 33.1639 28.7312L34.7551 30.0041C41.4466 24.3845 50.0781 21 59.5 21C69.2076 21 78.0761 24.5929 84.8482 30.5214L86.4335 29.2532Z" fill="#C81330"/>
<path d="M246.044 83.1218C248.552 83.0014 250.263 82.5319 251.179 81.7132C252.095 80.8945 252.553 79.1126 252.553 76.3676V43.6799C252.553 40.8145 252.011 38.9483 250.926 38.0815C250.203 37.5036 248.576 37.1063 246.044 36.8895V35.0114H269.874C274.816 35.0114 278.818 35.5291 281.88 36.5645C287.81 38.6594 290.775 42.4278 290.775 47.8697C290.775 51.891 289.293 55.0574 286.327 57.369C284.061 59.1027 281.663 60.2104 279.131 60.6919L294.03 81.7493C294.44 82.3272 294.873 82.7125 295.331 82.9051C295.79 83.0737 296.356 83.182 297.031 83.2302V85H281.88L266.511 61.8839H264.559V76.3676C264.559 78.9681 264.993 80.7259 265.861 81.6409C266.728 82.5319 268.464 83.0255 271.068 83.1218V85H246.044V83.1218ZM264.559 59.5C269.404 59.4278 272.864 58.7536 274.937 57.4774C277.034 56.1771 278.083 53.1912 278.083 48.5198C278.083 45.6544 277.685 43.391 276.89 41.7295C275.515 38.9122 273.008 37.5036 269.368 37.5036C267.391 37.5036 266.09 37.7564 265.463 38.2621C264.86 38.7436 264.559 39.5503 264.559 40.682V59.5Z" fill="#0B558E"/>
<path d="M188.549 83.1218C190.526 83.0255 191.924 82.7486 192.744 82.2911C194.118 81.5205 194.805 80.0637 194.805 77.9207V42.1268C194.805 40.0319 194.19 38.6112 192.961 37.8648C192.213 37.4313 190.743 37.1063 188.549 36.8895V35.0114H213.608V36.8895C211.439 37.0099 209.932 37.2989 209.088 37.7564C207.69 38.5269 206.991 39.9837 206.991 42.1268V57.4412H224.637V42.1268C224.637 39.9837 223.975 38.539 222.649 37.7925C221.829 37.335 220.298 37.034 218.056 36.8895V35.0114H243.26V36.8895C241.091 37.0581 239.608 37.3711 238.812 37.8286C237.487 38.5751 236.824 40.0078 236.824 42.1268V77.9207C236.824 80.0878 237.559 81.5567 239.029 82.3272C239.873 82.7847 241.283 83.0496 243.26 83.1218V85H218.056V83.1218C220.178 83.0496 221.684 82.7606 222.576 82.255C223.95 81.4844 224.637 80.0397 224.637 77.9207V60.8725H206.991V77.9207C206.991 80.1119 207.738 81.5928 209.233 82.3633C210.101 82.7968 211.559 83.0496 213.608 83.1218V85H188.549V83.1218Z" fill="#0B558E"/>
<path d="M162.803 67.5545L155.715 50.4341H155.1L148.411 67.5545H162.803ZM135.031 83.1218C136.815 83.0014 138.25 82.1947 139.334 80.7018C140.033 79.7627 141.034 77.6919 142.336 74.4894L158.789 34H160.85L177.375 72.864C179.232 77.2224 180.618 80.0397 181.534 81.3159C182.45 82.568 183.752 83.17 185.439 83.1218V85H161.465V83.1218C163.875 83.0255 165.454 82.8208 166.202 82.5078C166.973 82.1947 167.359 81.4001 167.359 80.1239C167.359 79.546 167.166 78.6671 166.78 77.4872C166.539 76.7889 166.214 75.9462 165.804 74.9589L163.924 70.4802H147.29C146.205 73.4178 145.506 75.3321 145.192 76.2231C144.542 78.1253 144.216 79.5099 144.216 80.3768C144.216 81.4363 144.927 82.2068 146.35 82.6884C147.193 82.9532 148.459 83.0977 150.146 83.1218V85H135.031V83.1218Z" fill="#0B558E"/>
</svg>
