<svg width="773" height="426" viewBox="0 0 773 426" fill="none" xmlns="http://www.w3.org/2000/svg">
<path d="M544.92 364.799C544.92 359.977 541.008 356.067 536.186 356.067H525.49C531.22 341.85 537.281 325.745 537.281 321.145C537.281 297.461 408.332 280.372 408.332 280.372C408.332 280.372 350.852 228.015 342.852 221.829C334.848 215.645 282.825 209.825 234.807 209.825C132.186 209.825 56.6861 284.893 54.1861 298.225C54.1861 304.893 54.1861 330.967 54.1861 330.967L65.6471 352.793L66.2371 356.066H56.9151C52.0971 356.066 48.1851 359.976 48.1851 364.798V371.347C48.1851 376.167 52.0971 380.077 56.9151 380.077H91.9101C93.7731 354.655 114.973 334.602 140.875 334.602C166.773 334.602 187.973 354.655 189.834 380.077H406.662C408.527 354.655 429.726 334.602 455.625 334.602C481.527 334.602 502.727 354.655 504.59 380.077H536.186C541.008 380.077 544.92 376.167 544.92 371.347V364.799ZM224.359 279.502H90.6021C98.2431 273.114 107.721 266.096 118.883 259.253C142.676 244.67 179.651 227.481 224.36 225.102V279.502H224.359ZM273.824 287.902C275.746 287.902 277.301 289.459 277.301 291.379V294.854C277.301 296.774 275.746 298.331 273.824 298.331H248.338C246.418 298.331 244.863 296.774 244.863 294.854V291.379C244.863 289.459 246.418 287.902 248.338 287.902H273.824ZM337.287 279.502C337.66 278.995 338.017 278.472 338.348 277.922C341.215 273.214 342.497 267.433 342.501 260.635C342.499 258.409 342.362 256.063 342.087 253.576C341.603 249.182 337.649 246.016 333.259 246.501C328.868 246.983 325.702 250.937 326.185 255.329C326.402 257.305 326.501 259.073 326.501 260.635C326.503 263.83 326.085 266.144 325.551 267.705C324.695 270.055 323.895 270.759 322.837 271.44C321.765 272.085 319.995 272.56 317.558 272.556C313.232 272.595 307.339 270.951 302.816 269.141C300.543 268.249 298.587 267.343 297.229 266.677C296.549 266.345 296.02 266.07 295.674 265.886C295.501 265.795 295.373 265.725 295.296 265.683C295.218 265.641 295.216 265.641 295.216 265.641C293.609 264.741 291.828 264.461 290.139 264.711C282.831 264.391 273.891 269.099 269.796 279.501H239.359V222.937C249.658 223.016 259.796 223.358 269.421 223.88C265.444 227.704 262.853 232.987 262.548 238.933C261.913 251.341 271.454 261.916 283.861 262.55C296.267 263.187 306.841 253.646 307.478 241.237C307.759 235.778 306.067 230.674 303.029 226.615C319.397 228.448 331.302 230.652 335.183 232.475C339.658 236.293 362.458 256.764 383.595 279.5H337.287V279.502Z" fill="#0B558E"/>
<path d="M455.625 344.428C435.152 344.428 418.348 360.086 416.51 380.078C416.403 381.275 416.336 382.488 416.336 383.717C416.336 405.414 433.926 423.006 455.625 423.006C477.326 423.006 494.914 405.414 494.914 383.717C494.914 382.488 494.851 381.276 494.742 380.078C492.904 360.086 476.096 344.428 455.625 344.428ZM455.625 398.267C447.588 398.267 441.074 391.751 441.074 383.714C441.074 383.222 441.099 382.737 441.148 382.259C441.877 374.905 448.08 369.163 455.625 369.163C463.17 369.163 469.371 374.905 470.102 382.259C470.151 382.737 470.178 383.222 470.178 383.714C470.178 391.752 463.662 398.267 455.625 398.267Z" fill="#0B558E"/>
<path d="M140.875 344.428C120.402 344.428 103.598 360.086 101.76 380.078C101.653 381.275 101.586 382.488 101.586 383.717C101.586 405.414 119.176 423.006 140.875 423.006C162.576 423.006 180.164 405.414 180.164 383.717C180.164 382.488 180.101 381.276 179.992 380.078C178.154 360.086 161.346 344.428 140.875 344.428ZM140.875 398.267C132.838 398.267 126.324 391.751 126.324 383.714C126.324 383.222 126.349 382.737 126.398 382.259C127.127 374.905 133.33 369.163 140.875 369.163C148.42 369.163 154.621 374.905 155.352 382.259C155.401 382.737 155.428 383.222 155.428 383.714C155.428 391.752 148.912 398.267 140.875 398.267Z" fill="#0B558E"/>
<path d="M509.538 169.815L631.069 20.618C644.248 4.43801 643.954 4.19401 630.417 20.075L505.581 166.517C492.042 182.399 482.001 196.258 483.268 197.315C484.536 198.372 496.358 185.996 509.538 169.815Z" fill="#0B558E"/>
<path d="M652.321 112.556L578.044 200.008L540.905 243.734L522.336 265.597L513.052 276.529L508.409 281.995L508.087 282.375C505.975 277.055 502.913 272.259 498.689 268.903C493.875 264.979 487.552 264.248 483.268 265.495C474.553 268.001 471.296 272.565 471.637 272.952C472.15 273.883 476.558 270.59 483.987 269.418C491.616 267.574 500.383 274.858 504.041 286.292L504.554 287.861L504.608 288.046L504.617 288.081C506.604 288.536 500.184 287.108 509.074 289.11L509.144 289.023L509.428 288.676L509.995 287.982L512.265 285.207L516.804 279.655L525.882 268.551L544.037 246.343L580.35 201.928L652.975 113.099C668.724 93.834 668.431 93.59 652.321 112.556Z" fill="#0B558E"/>
<path d="M467.262 287.952C470.645 287.952 473.387 285.21 473.387 281.827C473.387 278.444 470.645 275.702 467.262 275.702C463.879 275.702 461.137 278.444 461.137 281.827C461.137 285.21 463.879 287.952 467.262 287.952Z" fill="#0B558E"/>
<path d="M758.851 247.922L677.577 343.771L636.939 391.696L616.621 415.658L615.429 417.063C614.408 415.013 613.209 413.046 611.72 411.227C608.295 406.73 602.157 403.184 595.911 403.964C591.944 404.358 588.498 405.947 585.562 407.749C584.096 408.668 582.714 409.642 581.462 410.683C581.136 410.945 580.811 411.205 580.494 411.47C577.833 406.819 573.524 403.855 569.425 403.003C559.216 401.475 554.364 406.024 554.637 406.286C554.836 407.428 560.613 404.698 568.358 406.846C572.029 407.965 575.747 411.512 577.215 416.26L577.22 416.277C579.061 416.799 573.101 415.119 581.348 417.45L581.361 417.439L581.412 417.396L581.514 417.309L581.717 417.135L582.124 416.786L582.943 416.081L584.643 414.711C585.791 413.793 587.018 412.962 588.281 412.181C590.809 410.649 593.594 409.413 596.43 409.089C600.794 408.508 604.946 410.679 607.958 414.34C609.484 416.132 610.751 418.238 611.78 420.429L612.474 422.067L612.51 422.164L612.524 422.201C608.916 421.518 617.45 423.175 616.587 422.979L616.742 422.788L617.054 422.408L617.676 421.649L620.164 418.61L640.069 394.304L679.879 345.691L759.5 248.464C776.771 227.379 776.478 227.135 758.851 247.922Z" fill="#0B558E"/>
<path d="M548.637 421.952C552.02 421.952 554.762 419.21 554.762 415.827C554.762 412.444 552.02 409.702 548.637 409.702C545.254 409.702 542.512 412.444 542.512 415.827C542.512 419.21 545.254 421.952 548.637 421.952Z" fill="#0B558E"/>
<path d="M261.352 190.447L261.929 189.742L266.543 184.1L275.771 172.816L294.227 150.249L331.139 105.114L404.964 14.844C420.975 -4.734 420.682 -4.978 404.312 14.301L328.834 103.193L291.096 147.639L272.227 169.863L262.792 180.974L259.331 185.05C258.566 184.182 257.78 183.337 256.946 182.539C247.644 172.482 232.453 170.804 224.674 175.601C216.719 179.763 213.855 184.542 214.304 184.952C214.942 185.723 218.908 182.072 226.226 179.275C233.441 176.136 244.752 177.664 253.393 186.268C254.231 187.04 255.023 187.864 255.783 188.705L256.873 189.986L257.121 190.301L257.225 190.438C256.362 190.422 264.797 190.734 261.244 190.579L261.28 190.534L261.352 190.447Z" fill="#0B558E"/>
<path d="M206.637 198.745C210.02 198.745 212.762 196.003 212.762 192.62C212.762 189.237 210.02 186.495 206.637 186.495C203.254 186.495 200.512 189.237 200.512 192.62C200.512 196.003 203.254 198.745 206.637 198.745Z" fill="#0B558E"/>
<path d="M221.989 412.097C225.372 412.097 228.114 409.355 228.114 405.972C228.114 402.589 225.372 399.847 221.989 399.847C218.606 399.847 215.864 402.589 215.864 405.972C215.864 409.355 218.606 412.097 221.989 412.097Z" fill="#0B558E"/>
<path d="M6.125 409.097C9.50774 409.097 12.25 406.355 12.25 402.972C12.25 399.589 9.50774 396.847 6.125 396.847C2.74226 396.847 0 399.589 0 402.972C0 406.355 2.74226 409.097 6.125 409.097Z" fill="#0B558E"/>
<path d="M256.612 425.471C260.84 425.471 264.268 422.043 264.268 417.815C264.268 413.587 260.84 410.159 256.612 410.159C252.384 410.159 248.956 413.587 248.956 417.815C248.956 422.043 252.384 425.471 256.612 425.471Z" fill="#0B558E"/>
<path d="M518.943 415.13C523.171 415.13 526.599 411.702 526.599 407.474C526.599 403.246 523.171 399.818 518.943 399.818C514.715 399.818 511.287 403.246 511.287 407.474C511.287 411.702 514.715 415.13 518.943 415.13Z" fill="#0B558E"/>
<path d="M57.1221 415.13C61.3504 415.13 64.7781 411.702 64.7781 407.474C64.7781 403.246 61.3504 399.818 57.1221 399.818C52.8938 399.818 49.4661 403.246 49.4661 407.474C49.4661 411.702 52.8938 415.13 57.1221 415.13Z" fill="#0B558E"/>
<path d="M378.267 415.13C382.495 415.13 385.923 411.702 385.923 407.474C385.923 403.246 382.495 399.818 378.267 399.818C374.039 399.818 370.611 403.246 370.611 407.474C370.611 411.702 374.039 415.13 378.267 415.13Z" fill="#0B558E"/>
<path d="M476.971 215.951C481.021 215.951 484.304 212.668 484.304 208.618C484.304 204.568 481.021 201.285 476.971 201.285C472.921 201.285 469.638 204.568 469.638 208.618C469.638 212.668 472.921 215.951 476.971 215.951Z" fill="#0B558E"/>
<path d="M425.872 168.815L547.403 19.618C560.582 3.43801 560.288 3.19401 546.751 19.075L421.915 165.517C408.376 181.399 398.335 195.258 399.602 196.315C400.87 197.372 412.692 184.996 425.872 168.815Z" fill="#0B558E"/>
<path d="M393.305 214.951C397.355 214.951 400.638 211.668 400.638 207.618C400.638 203.568 397.355 200.285 393.305 200.285C389.255 200.285 385.972 203.568 385.972 207.618C385.972 211.668 389.255 214.951 393.305 214.951Z" fill="#0B558E"/>
<path d="M389.103 121.319C390.372 122.374 394.979 118.647 399.34 113.039L439.558 61.317C443.919 55.709 443.625 55.464 438.906 60.775L395.38 109.745C390.659 115.055 387.834 120.264 389.103 121.319Z" fill="#0B558E"/>
<path d="M382.805 139.955C386.855 139.955 390.138 136.672 390.138 132.622C390.138 128.572 386.855 125.289 382.805 125.289C378.755 125.289 375.472 128.572 375.472 132.622C375.472 136.672 378.755 139.955 382.805 139.955Z" fill="#0B558E"/>
<path d="M160.852 173.036L201.07 121.314C205.431 115.706 205.137 115.462 200.418 120.772L156.892 169.741C152.171 175.052 149.347 180.261 150.616 181.316C151.884 182.372 156.491 178.644 160.852 173.036Z" fill="#0B558E"/>
<path d="M144.318 199.952C148.368 199.952 151.651 196.669 151.651 192.619C151.651 188.569 148.368 185.286 144.318 185.286C140.268 185.286 136.985 188.569 136.985 192.619C136.985 196.669 140.268 199.952 144.318 199.952Z" fill="#0B558E"/>
<path d="M609.34 293.039L649.558 241.317C653.919 235.709 653.625 235.465 648.906 240.775L605.38 289.745C600.66 295.055 597.835 300.265 599.104 301.319C600.371 302.374 604.979 298.647 609.34 293.039Z" fill="#0B558E"/>
<path d="M592.805 319.955C596.855 319.955 600.138 316.672 600.138 312.622C600.138 308.572 596.855 305.289 592.805 305.289C588.755 305.289 585.472 308.572 585.472 312.622C585.472 316.672 588.755 319.955 592.805 319.955Z" fill="#0B558E"/>
<path d="M364.596 217.062C364.882 217.51 365.367 217.756 365.864 217.756C366.139 217.756 366.418 217.68 366.668 217.521L378.988 209.674C379.502 209.345 379.768 208.741 379.658 208.139C379.546 207.537 379.087 207.065 378.49 206.94L365.888 204.297L375.236 185.063C375.517 184.483 375.401 183.795 374.946 183.342C374.487 182.888 373.8 182.776 373.222 183.061L358.059 190.572L357.435 171.681C357.414 171.05 357.001 170.499 356.401 170.304C355.803 170.109 355.142 170.31 354.755 170.807L343.862 184.717L333.562 167.967C333.222 167.413 332.565 167.141 331.935 167.292C331.304 167.443 330.841 167.984 330.79 168.63L329.171 188.632L315.818 181.326C315.269 181.024 314.592 181.097 314.12 181.504C313.645 181.91 313.474 182.57 313.689 183.155L319.036 197.78C319.321 198.557 320.183 198.96 320.96 198.676C321.738 198.391 322.14 197.53 321.855 196.752V196.75L317.877 185.87L329.759 192.374C330.202 192.618 330.747 192.62 331.193 192.379C331.637 192.137 331.933 191.683 331.975 191.18L333.41 173.443L342.437 188.125C342.695 188.545 343.14 188.811 343.63 188.837C344.122 188.865 344.592 188.65 344.895 188.264L354.574 175.906L355.135 193.002C355.153 193.512 355.428 193.978 355.867 194.239C356.306 194.503 356.843 194.522 357.302 194.296L370.622 187.7L362.349 204.717C362.147 205.13 362.149 205.619 362.351 206.032C362.553 206.445 362.938 206.744 363.39 206.841L374.27 209.123L365.055 214.989C364.355 215.434 364.149 216.364 364.596 217.062Z" fill="#0B558E"/>
</svg>
