<svg width="96" height="86" viewBox="0 0 96 86" fill="none" xmlns="http://www.w3.org/2000/svg">
<path d="M48 0.0999756C21.8 0.0999756 0.5 16.9 0.5 37.6C0.5 48.9 6.9 59 16.9 65.9C16.1 69.4 14.7 73.6 11.9 77.8C10.7 79.6 10.8 82 12.1 83.8C12.9 84.9 14.1 85.6 15.4 85.8C16.2 85.9 17 85.9 17.8 85.6C25.2 83.3 32.2 78.6 37.7 74.2C41 74.8 44.4 75.1 47.9 75.1C74.1 75.1 95.4 58.3 95.4 37.6C95.5 16.9 74.2 0.0999756 48 0.0999756ZM26.7 26.1C26.7 22.3 29.8 19.2 33.6 19.2C37.4 19.2 40.5 22.3 40.5 26.1C40.5 29.9 37.4 33 33.6 33C29.8 33 26.7 30 26.7 26.1ZM48 59.4C39.4 59.4 32.4 52.4 32.4 43.8C32.4 43.3 32.8 42.8 33.4 42.8H62.6C63.1 42.8 63.6 43.2 63.6 43.8C63.6 52.4 56.6 59.4 48 59.4ZM62.3 33.1C58.5 33.1 55.4 30 55.4 26.2C55.4 22.4 58.5 19.3 62.3 19.3C66.1 19.3 69.2 22.4 69.2 26.2C69.3 30 66.2 33.1 62.3 33.1Z" fill="#0B558E"/>
</svg>
