<svg width="2428" height="716" viewBox="0 0 2428 716" fill="none" xmlns="http://www.w3.org/2000/svg">
<path fill-rule="evenodd" clip-rule="evenodd" d="M2081.26 0.151245C1890.19 0.151245 1735.28 155.049 1735.28 346.133C1735.28 537.216 1890.18 692.114 2081.26 692.114C2272.35 692.114 2427.24 537.216 2427.24 346.133C2427.24 155.049 2272.35 0.151245 2081.26 0.151245ZM2081.26 549.369C1939.18 548.772 1823.64 455.481 1762.49 343.655C1824.25 232.44 1940.4 142.248 2081.26 142.248C2224.59 142.248 2339.49 231.83 2400.03 343.655C2339.49 455.481 2225.84 549.991 2081.26 549.369Z" fill="black"/>
<path fill-rule="evenodd" clip-rule="evenodd" d="M2081.26 529.603C2182.58 529.603 2264.72 447.452 2264.72 346.133C2264.72 244.8 2182.6 162.662 2081.26 162.662C1979.93 162.662 1897.79 244.8 1897.79 346.133C1897.79 447.452 1979.94 529.603 2081.26 529.603ZM574.253 18.5294H883.764C1015.23 18.5294 1106.75 99.2402 1106.75 181.598C1106.75 243.166 1083.46 301.413 953.658 329.7C1003.58 336.353 1140.03 372.954 1140.03 502.756C1140.03 632.557 996.925 695.797 898.744 695.797H574.253V689.131H895.411C971.958 689.131 1020.22 657.511 1020.22 512.742C1020.22 367.961 966.965 334.68 900.404 333.02H800.563V326.38H906.228C949.495 326.38 995.252 319.726 995.252 179.938C995.252 40.15 940.338 25.1699 882.091 25.1699H800.55V689.131H677.402V25.1829H574.227V18.5294H574.253ZM137.224 361.411C137.224 105.141 212.099 13.6267 300.293 13.6267C425.101 13.6267 493.322 198.342 514.956 269.896V21.9404C493.322 38.5807 483.335 46.9072 460.042 46.9072C436.748 46.9072 401.794 35.2603 385.154 25.2736C368.514 15.2869 335.234 6.97335 301.953 6.97335C192.125 6.97335 0.756348 151.742 0.756348 361.411C0.756348 609.354 170.492 715.862 301.953 715.862C335.234 715.862 371.847 702.555 388.487 692.555C405.128 682.568 436.748 669.261 460.042 669.261C483.335 669.261 493.322 677.588 514.956 694.228V444.612C496.642 541.133 425.101 709.195 300.293 709.195C264.522 709.195 215.432 692.555 192.968 669.261C186.055 662.089 137.224 627.641 137.224 361.411ZM1583.44 562.533C1581.8 617.447 1540.18 690.674 1453.64 689.001C1367.11 687.341 1262.29 622.44 1222.34 447.712V684.008C1238.98 669.041 1267.28 642.414 1312.22 662.374C1357.13 682.348 1423.71 695.655 1453.64 695.655C1483.62 695.655 1648.34 664.035 1655 474.339C1656.67 379.491 1588.42 331.23 1546.83 316.25C1498.57 297.937 1430.36 276.316 1390.4 262.996C1350.48 249.689 1285.58 208.095 1287.23 131.535C1288.9 54.9874 1335.49 13.3933 1398.74 13.3933C1461.97 13.3933 1546.83 63.314 1590.1 239.703V5.07971C1565.14 26.7133 1545.16 36.7 1530.19 36.7C1516.9 36.7 1478.21 21.5124 1458.65 15.4815C1437.02 8.828 1415.78 6.32478 1388.73 6.75278C1341.31 7.47909 1229.82 64.9871 1222.33 219.755C1216.87 332.826 1300.55 376.184 1338.82 389.478C1372.1 401.124 1468.62 436.078 1496.9 447.725C1525.21 459.359 1586.79 499.306 1583.44 562.533Z" fill="black"/>
</svg>
