<svg width="2297" height="1092" viewBox="0 0 2297 1092" fill="none" xmlns="http://www.w3.org/2000/svg">
<path fill-rule="evenodd" clip-rule="evenodd" d="M733.338 773.822C754.31 771.721 769.005 754.925 769.005 736.054V198.912C769.005 -0.420729 1024.98 -96.9417 1161.35 135.969C1299.84 373.057 1379.56 511.548 1379.56 511.548V198.912C1379.56 -0.420729 1635.55 -96.9417 1771.94 135.969C1845.03 260.96 1917.76 386.153 1990.15 511.548V3.7815H2296.48V893.417C2296.48 1122.11 2027.91 1157.78 1918.79 975.243C1853.76 868.242 1685.92 591.273 1685.92 591.273V893.43C1687.99 1122.13 1419.43 1157.79 1308.22 975.256C1243.19 868.255 1077.43 591.286 1077.43 591.286V864.053C1077.43 1004.65 995.599 1078.08 867.614 1078.08H571.773C-185.674 1078.08 -191.964 3.79446 561.281 3.79446H729.136V308.039H544.485C236.051 308.039 202.485 773.848 565.47 773.848H733.338V773.822Z" fill="#C82636"/>
<path d="M2143.32 3.76855V874.507C2143.32 929.07 2090.86 941.664 2063.61 903.896C2063.61 903.896 1706.91 331.087 1616.68 182.116C1589.39 144.348 1532.76 156.941 1532.76 213.593V874.507C1532.76 929.07 1482.39 941.664 1455.12 903.896C1455.12 903.896 1096.34 331.087 1006.12 182.116C978.842 144.348 922.19 156.941 922.19 213.593V870.33C922.19 899.694 899.104 924.868 867.64 924.868H550.788C11.5574 924.868 28.3532 156.941 538.208 156.941H733.338" stroke="white" stroke-width="34.2142" stroke-miterlimit="2.613"/>
</svg>
