<svg width="507" height="183" viewBox="0 0 507 183" fill="none" xmlns="http://www.w3.org/2000/svg">
<path d="M183 91.5047C183 142.038 142.033 183 91.4953 183C40.9659 183 0 142.034 0 91.5047C0 40.9659 40.9688 0 91.4953 0C142.031 0 183 40.9652 183 91.5047Z" fill="#009BFF"/>
<path d="M301.674 25.2776C288.503 25.2776 279.183 32.8881 279.183 44.2615C279.183 54.6062 286.883 59.1362 295.606 61.7907C302.098 63.759 305.962 64.9496 305.962 69.1438C305.962 72.6544 303.293 74.5351 298.846 74.5351C292.951 74.5351 287.826 71.197 284.732 67.5245L276.434 78.9775C280.125 82.9991 288.675 87.7043 299.709 87.7043C314.685 87.7043 322.97 79.0637 322.97 67.5245C322.97 56.4909 315.442 52.0406 305.696 48.964C300.731 47.4217 296.203 46.3984 296.203 42.6382C296.203 40.2452 298.089 38.4467 302.537 38.4467C307.661 38.4467 311.857 40.8438 314.326 43.6629L322.12 32.1993C317.765 28.0967 310.821 25.2776 301.674 25.2776ZM346.071 26.4721L323.753 86.5044H341.199L343.934 77.8679H366.597L369.425 86.5057H387.309L364.977 26.4735L346.071 26.4721ZM218.773 26.4761V64.6987C218.773 79.4938 227.761 87.7043 245.287 87.7043C262.321 87.7043 271.814 79.4938 271.814 64.6987V26.4748H254.62V59.7414C254.62 66.322 253.93 72.7393 245.287 72.7393C236.657 72.7393 235.966 66.322 235.966 59.7414V26.4748L218.773 26.4761ZM355.06 40.7522H355.564C355.909 43.3178 356.68 46.9147 357.622 49.7338L362.242 64.1864H348.381L353.002 49.7325C353.944 46.9147 354.714 43.3178 355.06 40.7522ZM299.961 97.2738C277.629 97.2738 267.021 113.78 267.021 128.571C267.021 143.277 277.629 159.695 299.961 159.695C322.372 159.695 332.994 143.277 332.994 128.571C332.994 113.78 322.372 97.2738 299.961 97.2738ZM219.039 98.4684V112.409H233.829V158.502H251.022V112.409H265.813V98.4697L219.039 98.4684ZM414.606 98.4684L392.275 158.501H409.72L412.455 149.86H435.132L437.96 158.501H455.831L433.499 98.4684H414.606ZM444.041 98.4684L466.452 137.118V158.501H484.575V137.118L507 98.4684H488.691L480.566 113.263C478.853 116.426 476.45 121.219 475.945 124.378H475.6C475.096 121.219 472.692 116.426 470.98 113.263L462.854 98.4697L444.041 98.4684ZM339.154 98.4724V158.502H361.3C382.171 158.502 394.665 146.875 394.665 128.492C394.665 109.758 382.516 98.4724 361.3 98.4724H339.154ZM299.881 112.24C308.272 112.24 315.269 117.799 315.269 128.572C315.269 139.257 308.272 144.738 299.881 144.738C291.663 144.738 284.653 139.257 284.653 128.572C284.653 117.799 291.663 112.24 299.881 112.24ZM356.348 112.325H360.025C371.058 112.325 376.953 117.626 376.953 128.491C376.953 139.348 371.058 144.644 360.025 144.644H356.348V112.325ZM423.581 112.746H424.099C424.444 115.317 425.215 118.907 426.157 121.737L430.778 136.191H416.917L421.537 121.737C422.466 118.907 423.236 115.317 423.581 112.746Z" fill="black"/>
</svg>
